<?xml version="1.0" encoding="UTF-8" standalone="no"?>
<!-- Generator: Adobe Illustrator 19.0.0, SVG Export Plug-In . SVG Version: 6.00 Build 0)  -->

<svg
   xmlns:dc="http://purl.org/dc/elements/1.1/"
   xmlns:cc="http://creativecommons.org/ns#"
   xmlns:rdf="http://www.w3.org/1999/02/22-rdf-syntax-ns#"
   xmlns:svg="http://www.w3.org/2000/svg"
   xmlns="http://www.w3.org/2000/svg"
   xmlns:sodipodi="http://sodipodi.sourceforge.net/DTD/sodipodi-0.dtd"
   xmlns:inkscape="http://www.inkscape.org/namespaces/inkscape"
   version="1.1"
   id="Capa_1"
   x="0px"
   y="0px"
   viewBox="0 0 512.019 512.019"
   style="enable-background:new 0 0 512.019 512.019;"
   xml:space="preserve"
   sodipodi:docname="label-new.svg"
   inkscape:version="0.92.4 (5da689c313, 2019-01-14)"><metadata
   id="metadata49"><rdf:RDF><cc:Work
       rdf:about=""><dc:format>image/svg+xml</dc:format><dc:type
         rdf:resource="http://purl.org/dc/dcmitype/StillImage" /></cc:Work></rdf:RDF></metadata><defs
   id="defs47" /><sodipodi:namedview
   pagecolor="#ffffff"
   bordercolor="#666666"
   borderopacity="1"
   objecttolerance="10"
   gridtolerance="10"
   guidetolerance="10"
   inkscape:pageopacity="0"
   inkscape:pageshadow="2"
   inkscape:window-width="1278"
   inkscape:window-height="1378"
   id="namedview45"
   showgrid="false"
   inkscape:zoom="0.46092041"
   inkscape:cx="256.00949"
   inkscape:cy="256.00949"
   inkscape:window-x="-7"
   inkscape:window-y="9"
   inkscape:window-maximized="0"
   inkscape:current-layer="Capa_1" />
<path
   style="fill:#6baa75"
   d="M 3.1150001,216.458 216.448,3.1240001 c 2.004,-1.999 4.721,-3.12000004 7.552,-3.11500004 h 277.333 c 5.891,-0.0100000006 10.675,4.75700004 10.686,10.64799994 0.005,2.84 -1.123,5.565 -3.134,7.571 L 18.219,508.895 c -2.004,1.999 -4.721,3.12 -7.552,3.115 C 9.2690001,512.009 7.8840001,511.734 6.5920001,511.199 2.6030001,509.55 0.00100006,505.66 5.9413424e-8,501.343 V 224.01 C -0.00499994,221.179 1.1150001,218.462 3.1150001,216.458 Z"
   id="path2"
   inkscape:connector-curvature="0" />
<g
   id="g12"
   transform="rotate(-90,251.67035,251.96767)">
	<path
   style="fill:#fafafa"
   d="m 224.019,170.676 c -5.891,0.001 -10.668,-4.773 -10.669,-10.664 0,-0.717 0.072,-1.433 0.216,-2.136 l 14.421,-72.128 -39.083,39.147 c -4.237,4.093 -10.99,3.975 -15.083,-0.262 -3.992,-4.134 -3.992,-10.687 0,-14.82 l 64,-64 c 4.165,-4.166 10.919,-4.167 15.085,-0.002 2.519,2.519 3.615,6.129 2.92,9.623 l -14.421,72.128 39.104,-39.083 c 4.092,-4.237 10.845,-4.355 15.083,-0.262 4.238,4.093 4.355,10.845 0.262,15.083 -0.086,0.089 -0.173,0.176 -0.262,0.262 l -64,64 c -2.009,2.004 -4.735,3.125 -7.573,3.114 z"
   id="path4"
   inkscape:connector-curvature="0" />
	<path
   style="fill:#fafafa"
   d="m 288.019,234.676 c -2.831,0.005 -5.548,-1.115 -7.552,-3.115 l -32,-32 c -4.164,-4.165 -4.164,-10.917 0,-15.083 l 64,-64 c 4.165,-4.164 10.917,-4.164 15.083,0 l 32,32 c 4.237,4.093 4.354,10.845 0.262,15.083 -4.093,4.237 -10.845,4.354 -15.083,0.262 -0.089,-0.086 -0.176,-0.173 -0.262,-0.262 l -24.448,-24.469 -48.917,48.917 24.448,24.448 c 4.171,4.16 4.179,10.914 0.019,15.085 -2.001,2.006 -4.717,3.134 -7.55,3.134 z"
   id="path6"
   inkscape:connector-curvature="0" />
	<path
   style="fill:#fafafa"
   d="m 309.352,192.01 c -2.831,0.005 -5.548,-1.115 -7.552,-3.115 l -21.333,-21.333 c -4.092,-4.237 -3.975,-10.99 0.262,-15.083 4.134,-3.992 10.687,-3.992 14.82,0 l 21.333,21.333 c 4.159,4.172 4.149,10.926 -0.024,15.085 -1.992,1.988 -4.691,3.106 -7.506,3.113 z"
   id="path8"
   inkscape:connector-curvature="0" />
	<path
   style="fill:#fafafa"
   d="m 373.352,320.01 c -5.891,-0.004 -10.663,-4.784 -10.659,-10.675 0.001,-1.143 0.185,-2.278 0.547,-3.363 l 14.592,-43.755 -43.755,14.592 c -4.096,1.329 -8.59,0.096 -11.435,-3.136 -2.821,-3.261 -3.402,-7.899 -1.472,-11.755 l 42.667,-85.333 c 2.633,-5.272 9.042,-7.412 14.315,-4.779 5.273,2.633 7.412,9.042 4.779,14.315 v 0 l -31.147,62.293 39.573,-13.184 c 3.837,-1.254 8.053,-0.257 10.923,2.581 2.861,2.857 3.861,7.087 2.581,10.923 l -13.184,39.552 62.293,-31.147 c 5.272,-2.633 11.681,-0.494 14.315,4.779 2.633,5.272 0.494,11.681 -4.779,14.315 L 378.174,318.9 c -1.498,0.743 -3.15,1.123 -4.822,1.11 z"
   id="path10"
   inkscape:connector-curvature="0" />
</g>
<g
   id="g14">
</g>
<g
   id="g16">
</g>
<g
   id="g18">
</g>
<g
   id="g20">
</g>
<g
   id="g22">
</g>
<g
   id="g24">
</g>
<g
   id="g26">
</g>
<g
   id="g28">
</g>
<g
   id="g30">
</g>
<g
   id="g32">
</g>
<g
   id="g34">
</g>
<g
   id="g36">
</g>
<g
   id="g38">
</g>
<g
   id="g40">
</g>
<g
   id="g42">
</g>
</svg>