<svg id="Capa_1" enable-background="new 0 0 433.126 433.126" height="512" viewBox="0 0 433.126 433.126" width="512" xmlns="http://www.w3.org/2000/svg"><g><g id="icon_52_"><path d="m393.836 0v433.126h-312.614c-23.152 0-41.921-18.769-41.921-41.921v-354.898c0-20.052 16.255-36.307 36.307-36.307h.011z" fill="#f6b863"/><path d="m393.836 407.821v25.305h-312.614c-23.144-.036-41.896-18.788-41.932-41.932v-354.887c.003-20.055 16.263-36.31 36.318-36.307h.011 8.192v407.821z" fill="#eaa14e"/><path d="m393.836 352.457v73.837h-311.428c-20.372.018-36.901-16.482-36.919-36.854 0-.027 0-.054 0-.081.373-9.923 4.603-19.31 11.792-26.161 6.557-6.861 15.636-10.742 25.127-10.742h311.428z" fill="#eeefee"/><path d="m145.422 370.291v50.486l-21.391-24.45-21.391 24.45v-50.486z" fill="#ef5261"/><path d="m128.606 244.494h220.434c2.425 0 4.391 1.966 4.391 4.391v.005c0 2.425-1.966 4.391-4.391 4.391h-220.434c-2.425 0-4.391-1.966-4.391-4.391v-.005c0-2.425 1.966-4.391 4.391-4.391z" fill="#eaa14e"/><path d="m128.606 274.294h220.434c2.425 0 4.391 1.966 4.391 4.391v.005c0 2.425-1.966 4.391-4.391 4.391h-220.434c-2.425 0-4.391-1.966-4.391-4.391v-.005c0-2.426 1.966-4.391 4.391-4.391z" fill="#eaa14e"/><path d="m128.606 304.093h151.973c2.425 0 4.391 1.966 4.391 4.391v.005c0 2.425-1.966 4.391-4.391 4.391h-151.973c-2.425 0-4.391-1.966-4.391-4.391v-.005c0-2.426 1.966-4.391 4.391-4.391z" fill="#eaa14e"/><path d="m327.758 99.327c-.015 21.784-17.679 39.436-39.463 39.436v61.417h-98.942v-61.417h-.027c-21.78-.049-39.397-17.744-39.348-39.524s17.744-39.397 39.524-39.348c2.983.007 5.955.352 8.86 1.028 16.498-22.348 47.989-27.09 70.337-10.592 4.04 2.982 7.61 6.553 10.592 10.592 21.261-4.943 42.503 8.286 47.446 29.547.675 2.905 1.02 5.878 1.026 8.861z" fill="#eeefee"/><g fill="#dbd8dd"><path d="m267.575 133.657h2.442v50.53h-2.442z"/><path d="m247.618 134.935h2.442v50.53h-2.442z"/><path d="m227.662 134.935h2.442v50.53h-2.442z"/><path d="m207.706 134.935h2.442v50.53h-2.442z"/></g><path d="m189.352 179.027h98.942v8.646h-98.942z" fill="#ef5261"/></g></g></svg>