<?xml version="1.0" encoding="UTF-8" standalone="no"?>
<svg
   xmlns:dc="http://purl.org/dc/elements/1.1/"
   xmlns:cc="http://creativecommons.org/ns#"
   xmlns:rdf="http://www.w3.org/1999/02/22-rdf-syntax-ns#"
   xmlns:svg="http://www.w3.org/2000/svg"
   xmlns="http://www.w3.org/2000/svg"
   xmlns:sodipodi="http://sodipodi.sourceforge.net/DTD/sodipodi-0.dtd"
   xmlns:inkscape="http://www.inkscape.org/namespaces/inkscape"
   version="1.0"
   width="6000.3906pt"
   height="1245.5403pt"
   viewBox="0 0 6000.3906 1245.5403"
   preserveAspectRatio="xMidYMid meet"
   id="svg14"
   sodipodi:docname="tasty-recipes-logo-orange.svg"
   inkscape:version="0.92.4 (5da689c313, 2019-01-14)">
  <defs
     id="defs18" />
  <sodipodi:namedview
     pagecolor="#ffffff"
     bordercolor="#666666"
     borderopacity="1"
     objecttolerance="10"
     gridtolerance="10"
     guidetolerance="10"
     inkscape:pageopacity="0"
     inkscape:pageshadow="2"
     inkscape:window-width="2560"
     inkscape:window-height="1387"
     id="namedview16"
     showgrid="false"
     inkscape:showpageshadow="false"
     fit-margin-top="0"
     fit-margin-left="0"
     fit-margin-right="0"
     fit-margin-bottom="0"
     inkscape:zoom="0.14308812"
     inkscape:cx="3868.3364"
     inkscape:cy="836.51303"
     inkscape:window-x="-8"
     inkscape:window-y="-8"
     inkscape:window-maximized="1"
     inkscape:current-layer="svg14" />
  <metadata
     id="metadata2">
Created by potrace 1.15, written by Peter Selinger 2001-2017
<rdf:RDF>
  <cc:Work
     rdf:about="">
    <dc:format>image/svg+xml</dc:format>
    <dc:type
       rdf:resource="http://purl.org/dc/dcmitype/StillImage" />
    <dc:title></dc:title>
  </cc:Work>
</rdf:RDF>
</metadata>
  <path
     style="fill:#ff7851;stroke:none;stroke-width:0.10000001"
     d="m 2730.9288,0.00412671 c -6.0406,-0.0234375 -10.9217,0.05195312 -13.5967,0.25195312 -13.5,1.09999997 -33.3005,3.79999997 -44.5005,5.99999997 -88.2,17.6000002 -159.5992,69.7997092 -213.1992,155.6997102 -37.9,60.69999 -51.0002,118.10039 -39.7002,173.90039 18.2,90.49999 90.1003,182.1 201.3003,256.5 9.3,6.3 19.0998,12.59912 21.7998,14.09912 l 4.8003,2.69971 v 292.20118 c 0,208.90001 0.3001,293.69951 1.1001,297.49951 3.7,17.8 19.4998,33.5998 36.7998,36.7998 2.9,0.5 16.1002,1.0005 29.2002,1.0005 h 23.8989 V 900.95479 565.15549 l -2.6997,-5.2998 c -4,-7.8 -10.3994,-13.6999 -24.8994,-22.8999 -42.1,-26.60001 -86.8008,-63.29961 -116.8008,-96.09961 -41.3,-45.3 -64.6993,-87.1001 -71.7993,-128.6001 -2.6,-15.2 -2.0999,-39.00068 1.1001,-52.70069 7.5,-32.89999 27.5989,-67.50058 56.8989,-98.10058 56.7,-59.2 127.6013,-76.198831 239.3013,-57.29883 85.4,14.4 163.4992,42.69942 193.6992,69.89941 l 5.2002,4.8003 -15.2007,16.1997 c -42.6,45.10001 -92.3988,105.69981 -99.2988,120.79981 -12.4,27.1 2.7989,57.60029 32.8989,66.30029 9.1,2.60001 18.1006,1.59932 27.6006,-3.20068 6.7,-3.4 10.5,-6.69883 36,-31.79883 83.4,-82 164.1995,-143.10098 240.4995,-182.00097 60.2,-30.70001 110.6,-43.89923 160.5,-42.19922 31.4,1.1 56.8,5.40029 82.5,13.80029 51.4,16.9 89.2008,49.69893 103.3008,89.89893 3.4,9.7 6.7002,25.30048 8.2002,38.50048 2.1,18.7 0.7,50.39952 -3,70.99952 -5.1,27.9 -16.3009,59.90038 -29.4009,83.90038 -18.6,34.00001 -53.8995,63.69952 -102.4995,85.99952 -10.8,5 -30.5996,13.00029 -37.5996,15.30029 l -3,1.00049 -0.3003,357.0996 -0.2007,357.20071 h 26.2998 c 28.7,0 33.5001,-0.7008 43.1001,-5.8008 6.7001,-3.5 15.7009,-12.5998 18.9009,-18.7998 6.2,-12.2 5.6997,14.0997 5.6997,-321.30031 l 0.1,-305.60008 14.4009,-7.89991 c 29,-15.79999 53.599,-33.79912 74.499,-54.59912 22.4,-22.2 36.801,-42.50097 51.501,-72.50097 44,-89.50001 52.9993,-172.8 26.7993,-247.5 -4.8,-13.7 -17.9997,-39.79922 -26.6997,-52.69922 -40.3,-60.100001 -103.9006,-103.500199 -179.1006,-122.200198 -43.7,-10.8 -88.499,-12.800001 -135.999,-6 -85,12.099999 -193.8012,50.49922 -247.2012,87.199218 l -7.2993,4.90137 -7.1997,-6.7002 c -16,-14.799999 -36.3008,-28.099996 -64.3008,-41.999998 -63.2,-31.4 -146.4,-54.7 -225,-62.9999998 -10.725,-1.125 -39.2809,-2.08154299 -57.4028,-2.15185549 z M 1311.4087,119.39768 c -101.5624,0 -207.4218,9.96094 -317.57811,29.88281 -87.89062,16.40625 -164.2578,34.375 -229.10152,53.90625 -24.21878,7.81251 -36.32813,20.11719 -36.32813,36.91407 0,6.24999 1.95315,11.71875 5.85938,16.40625 6.24997,8.20312 13.8672,12.30468 22.85152,12.30468 7.81253,0 18.75,-2.53906 32.8125,-7.61718 66.79688,-18.75 139.25782,-34.17969 217.38286,-46.28907 l -15.82036,25.19532 c -56.6406,91.01562 -92.38275,149.02344 -107.22652,174.02343 -37.10941,61.32813 -77.53905,136.71876 -121.2891,226.17188 -68.35935,139.06252 -102.53903,226.56247 -102.53903,262.5 0,8.9844 2.73435,17.57812 8.20313,25.78125 8.20312,12.50002 18.3594,18.75 30.46875,18.75 13.28122,0 22.65622,-12.30465 28.125,-36.91403 23.8281,-81.25012 61.5234,-174.21879 113.0859,-278.90628 67.57815,-137.89063 138.47662,-261.13281 212.69533,-369.72657 12.5001,-18.35937 18.75,-31.83594 18.75,-40.42968 0,-8.20313 -4.8828,-14.25782 -14.6485,-18.16407 34.7657,-8.59374 99.2188,-14.45312 193.3594,-17.57812 47.2657,-1.17188 82.6173,-2.92969 106.0548,-5.27344 26.9531,-3.125 40.4296,-13.86718 40.4296,-32.22656 0,-10.9375 -5.4687,-18.35938 -16.4062,-22.26563 -11.7188,-4.29687 -34.7656,-6.44531 -69.1407,-6.44531 z m 2760.75,15.79102 c -12.1093,0 -20.8983,5.27344 -26.3671,15.82031 -3.1251,5.85938 -7.2266,17.96875 -12.3047,36.32813 -17.5782,7.03125 -35.5469,15.82031 -53.9063,26.36718 -26.1718,14.84375 -39.2578,32.03125 -39.2578,51.5625 0,5.46875 1.3672,10.35156 4.1016,14.64844 3.5156,5.46875 7.8125,8.20313 12.8906,8.20313 3.9063,0 9.1797,-1.75782 15.8203,-5.27344 6.25,-3.51563 14.6484,-7.61719 25.1953,-12.30469 -3.5156,11.32812 -22.0702,49.60937 -55.664,114.84375 -37.5,64.45313 -59.1797,101.75781 -65.0391,111.91406 -8.5937,-3.90625 -15.625,-5.85937 -21.0938,-5.85937 -5.8593,0 -11.328,1.95312 -16.4062,5.85937 -10.1562,7.8125 -15.2344,18.35937 -15.2344,31.64063 0,9.375 2.7344,23.04687 8.2031,41.01562 -41.4062,72.65625 -74.6093,137.50003 -99.6093,194.53122 -35.1563,79.2969 -52.7344,128.12505 -52.7344,146.48438 0,6.25005 2.3437,12.30472 7.0312,18.1641 5.0782,6.24997 12.3048,9.375 21.6798,9.375 11.3281,0 19.7265,-2.73435 25.1952,-8.20313 4.2969,-3.90622 12.3048,-23.0469 24.0235,-57.42187 19.9219,-59.37503 55.4687,-138.67189 106.6406,-237.89063 46.0938,112.5 84.1797,193.55468 114.2578,243.16403 8.2031,14.45317 15.0391,26.56252 20.5079,36.32812 10.9374,20.70315 21.289,31.05473 31.0546,31.05473 6.2501,0 13.8672,-3.12503 22.8516,-9.375 8.5937,-6.64065 12.8906,-13.6719 12.8906,-21.09375 0,-7.81253 -2.9297,-16.40625 -8.7891,-25.78125 -22.2656,-35.54685 -38.2812,-62.89065 -48.0468,-82.03125 -33.9844,-72.26564 -60.1563,-127.73438 -78.5157,-166.40626 -10.5468,-23.82813 -18.9453,-47.65625 -25.1952,-71.48437 18.3594,1.17187 32.0312,1.75781 41.0156,1.75781 52.3438,0 105.4687,-9.76563 159.375,-29.29688 70.3125,-25.39062 126.5625,-61.91406 168.75,-109.57031 44.9218,-51.17188 67.3828,-105.46875 67.3828,-162.89062 0,-35.15625 -11.1328,-65.03907 -33.3984,-89.64844 -23.4375,-25.78125 -57.8125,-38.67188 -103.125,-38.67188 -14.8438,0 -30.6641,1.36719 -47.461,4.10157 -16.4063,2.73437 -33.789,6.83593 -52.1484,12.30468 -9.7656,-14.84375 -21.2891,-22.26562 -34.5704,-22.26562 z m 130.0782,69.14062 c 29.2968,0 51.1719,5.85938 65.625,17.57813 14.8437,11.32812 22.2656,28.51562 22.2656,51.5625 0,22.65625 -6.0547,44.14062 -18.164,64.45312 -19.1406,32.8125 -44.1407,61.71875 -75,86.71875 -70.3125,56.64063 -145.8985,84.96094 -226.7579,84.96094 -7.4218,0 -18.5546,-0.39063 -33.3984,-1.17187 17.9687,-30.07813 42.3828,-74.60938 73.2422,-133.59375 30.8594,-59.37501 53.125,-104.68751 66.7968,-135.9375 19.5313,-8.98438 34.5704,-15.42969 45.1173,-19.33594 26.9531,-10.15625 53.7109,-15.23438 80.2734,-15.23438 z m -2197.6641,97.88086 c -7.0312,0 -15.2343,4.88282 -24.6093,14.64844 -6.6407,7.03125 -18.5547,22.26562 -35.7422,45.70312 -30.8594,42.1875 -53.125,75.58594 -66.7969,100.19532 -17.9688,5.85937 -31.6406,9.57031 -41.0156,11.13281 -25.7813,3.51562 -40.2344,6.05469 -43.3594,7.61719 -11.3281,5.85937 -16.9922,13.67187 -16.9922,23.4375 0,8.20312 4.2969,15.03906 12.8906,20.50781 6.25,3.90625 13.4766,5.85937 21.6797,5.85937 5.4688,0 13.4766,-1.36719 24.0235,-4.10156 -30.0782,59.76563 -48.4376,97.46094 -55.0782,113.08594 -27.3437,62.89063 -41.0156,117.96877 -41.0156,165.23437 0,21.48435 4.1016,38.0859 12.3047,49.80465 13.2812,18.35948 29.8828,27.5391 49.8047,27.5391 37.5,0 78.9062,-30.07815 124.2187,-90.23437 37.8906,-50 56.836,-82.22657 56.836,-96.67969 0,-3.51562 -1.5625,-7.03125 -4.6875,-10.54687 -3.5157,-3.51563 -7.8125,-5.27344 -12.8907,-5.27344 -8.5937,0 -16.6015,6.44531 -24.0234,19.33594 -13.6719,22.65624 -29.2969,45.31246 -46.875,67.96878 -27.7344,36.71873 -51.3672,55.07813 -70.8984,55.07805 -8.2032,0 -14.4532,-2.53905 -18.75,-7.61715 -3.9063,-5.0781 -5.8594,-12.50002 -5.8594,-22.26562 0,-34.37498 15.4297,-86.32813 46.2891,-155.85938 21.4843,-48.82812 44.9218,-92.96874 70.3125,-132.42187 14.0625,-4.6875 28.3203,-9.17969 42.7734,-13.47656 52.3437,-15.23438 81.8359,-22.65625 88.4766,-22.26563 16.4062,-1.5625 26.5624,-3.51562 30.4687,-5.85937 7.4219,-4.29688 11.1328,-10.9375 11.1328,-19.92188 0,-17.96875 -10.7422,-26.95312 -32.2265,-26.95312 -18.75,0 -49.8047,5.85937 -93.1641,17.57812 7.0312,-12.10937 17.7734,-27.92968 32.2266,-47.46094 21.8749,-30.07812 32.8125,-50.19531 32.8125,-60.35156 0,-5.07812 -2.3438,-10.15625 -7.0313,-15.23437 -5.0781,-5.46876 -10.1563,-8.20313 -15.2344,-8.20313 z m 3115.2422,22.23633 c -12.1094,0 -25.7813,7.8125 -41.0156,23.4375 -20.7031,21.09375 -31.0547,41.01563 -31.0547,59.76563 0,7.42187 2.3438,13.67187 7.0313,18.75 4.6875,5.46874 10.7421,8.20312 18.164,8.20312 15.2344,0 31.0547,-9.57031 47.461,-28.71094 17.1875,-19.92187 25.7812,-38.08593 25.7812,-54.49218 0,-17.96876 -8.7891,-26.95313 -26.3672,-26.95313 z m 84.375,150 c -12.8906,0 -26.1719,12.69531 -39.8438,38.08594 -5.0781,9.375 -15.039,26.56249 -29.8827,51.5625 -71.4844,118.35937 -147.0704,266.99217 -226.7579,445.89845 -51.5625,116.0156 -77.3437,184.5703 -77.3437,205.664 0,6.6407 2.1484,12.6953 6.4453,18.1641 5.8594,7.8125 11.7188,11.7188 17.5781,11.7188 12.1094,0 22.6563,-13.4766 31.6407,-40.4298 42.1875,-112.5 90.039,-222.85151 143.5546,-331.05461 16.7969,13.28123 33.7891,19.92188 50.9766,19.92188 31.25,0 64.6484,-14.64848 100.1953,-43.94535 42.1875,-34.76558 78.125,-82.42185 107.8125,-142.96872 19.1407,-38.28125 28.711,-71.09375 28.711,-98.4375 0,-19.92188 -4.2969,-34.76563 -12.8907,-44.53125 -8.5937,-10.15625 -21.4843,-15.23438 -38.6718,-15.23438 -15.2344,0 -30.8594,3.90625 -46.875,11.71875 -7.8126,3.90625 -19.7266,10.9375 -35.7423,21.09375 6.6407,-11.71875 15.6251,-27.34375 26.9532,-46.875 9.375,-15.23437 14.0625,-27.34375 14.0625,-36.32812 0,-16.01563 -6.6406,-24.02344 -19.9219,-24.02344 z m -3540.0469,18.19336 c -46.0937,0 -89.8437,14.45312 -131.25,43.35937 -42.5781,30.07813 -63.8671,64.64844 -63.8671,103.71094 0,29.29688 12.8906,61.91406 38.6718,97.85156 18.75,26.17185 28.125,47.4609 28.125,63.86715 0,13.28138 -3.5156,24.21878 -10.5468,32.8125 -8.5938,10.15635 -20.5079,15.23445 -35.7423,15.23445 -15.6249,-1.5e-4 -29.4921,-5.8593 -41.6015,-17.5782 -13.6719,-13.28122 -20.5078,-29.49217 -20.5078,-48.63277 0,-22.65623 4.4922,-42.38282 13.4766,-59.17969 3.5156,-6.25 5.2734,-10.9375 5.2734,-14.0625 0,-7.8125 -4.8828,-11.71875 -14.6484,-11.71875 -10.9375,0 -21.4844,6.83594 -31.6407,20.50781 -15.6249,20.70313 -23.4375,46.28895 -23.4375,76.75785 0,26.17185 6.836,48.828 20.5078,67.96875 19.5313,26.95313 48.0469,40.42965 85.5469,40.42965 23.8282,0 45.1172,-6.0546 63.8672,-18.1641 30.4688,-19.5312 45.7031,-46.48432 45.7031,-80.8593 0,-23.04697 -11.5234,-51.1719 -34.5703,-84.37503 -20.7031,-30.46875 -31.0547,-55.85938 -31.0547,-76.17188 0,-28.51562 15.8203,-53.125 47.4609,-73.82812 27.3438,-18.35938 52.3438,-27.53907 75,-27.53907 9.375,0 16.4063,1.95313 21.0938,5.85938 4.6875,3.90625 7.0313,9.96094 7.0313,18.16406 0,10.54688 -5.2735,20.3125 -15.8203,29.29688 -12.1094,10.54687 -25.3907,17.38281 -39.8438,20.50781 -24.2188,5.46875 -37.5,8.78906 -39.8437,9.96094 -9.375,5.07812 -14.0625,12.5 -14.0625,22.26562 0,14.45312 8.2031,21.67969 24.6093,21.67969 12.1094,0 27.1485,-3.32031 45.1172,-9.96094 32.8126,-12.5 57.4219,-28.90625 73.8281,-49.21875 17.1875,-21.48437 25.7813,-43.75 25.7813,-66.79687 0,-17.57813 -6.0547,-30.66407 -18.1641,-39.25782 -12.1094,-8.59374 -30.2734,-12.89062 -54.4922,-12.89062 z m 4266.0235,11.10352 c -46.0938,0 -89.8438,14.45312 -131.25,43.35937 -42.5781,30.07812 -63.8672,64.64843 -63.8672,103.71094 0,29.29687 12.8906,61.91406 38.6718,97.85156 18.75,26.17186 28.125,47.46091 28.125,63.86716 0,13.2813 -3.5156,24.21877 -10.5468,32.8125 -8.5938,10.15627 -20.5078,15.23437 -35.7422,15.23437 -15.625,0 -29.4922,-5.85937 -41.6016,-17.57812 -13.6718,-13.28123 -20.5078,-29.49218 -20.5078,-48.63278 0,-22.65622 4.4922,-42.3828 13.4766,-59.17969 3.5156,-6.25001 5.2734,-10.93751 5.2734,-14.0625 0,-7.8125 -4.8828,-11.71875 -14.6484,-11.71875 -10.9375,0 -21.4844,6.83593 -31.6407,20.50781 -15.625,20.70316 -23.4375,46.28903 -23.4375,76.75778 0,26.17193 6.836,48.82815 20.5079,67.96875 19.5312,26.95313 48.0468,40.42973 85.5468,40.42973 23.8282,0 45.1172,-6.05468 63.8672,-18.1641 30.4688,-19.5312 45.7031,-46.48433 45.7031,-80.85938 0,-23.04682 -11.5233,-51.17182 -34.5703,-84.37497 -20.7031,-30.46875 -31.0547,-55.85937 -31.0547,-76.17187 0,-28.51563 15.8204,-53.12501 47.461,-73.82813 27.3437,-18.35937 52.3438,-27.53906 75,-27.53906 9.375,0 16.4062,1.95312 21.0937,5.85938 4.6875,3.90624 7.0313,9.96093 7.0313,18.16406 0,10.54687 -5.2735,20.3125 -15.8203,29.29687 -12.1094,10.54688 -25.3906,17.38281 -39.8438,20.50782 -24.2187,5.46874 -37.5,8.78906 -39.8437,9.96093 -9.375,5.07813 -14.0625,12.5 -14.0625,22.26563 0,14.45312 8.2031,21.67969 24.6093,21.67969 12.1095,0 27.1485,-3.32032 45.1172,-9.96094 32.8125,-12.5 57.4219,-28.90625 73.8282,-49.21875 17.1875,-21.48438 25.7812,-43.75001 25.7812,-66.79688 0,-17.57812 -6.0546,-30.66406 -18.1641,-39.25781 -12.1093,-8.59375 -30.2733,-12.89062 -54.4921,-12.89062 z m -4613.4844,0.61523 c -26.1718,0 -53.3203,10.15625 -81.4453,30.46875 -42.9687,31.25 -79.6875,75.97656 -110.1563,134.17969 -27.3437,52.34375 -41.0156,100.19531 -41.0156,143.55468 0,17.57813 3.711,32.8125 11.1328,45.70313 11.7188,19.92187 28.125,29.88277 49.2188,29.88277 24.2188,1.5e-4 48.6328,-15.2343 73.2421,-45.70305 12.5001,-15.62512 25.1954,-34.76557 38.086,-57.42195 -1.5625,17.96888 -2.3437,30.85935 -2.3437,38.67195 0,23.04683 6.2499,42.18743 18.75,57.4218 15.2343,18.75015 33.3984,28.125 54.4921,28.125 7.8125,0 14.6485,-2.53905 20.5079,-7.61715 5.4687,-4.6875 8.2031,-10.7421 8.2031,-18.1641 0,-11.71875 -4.8828,-19.9218 -14.6485,-24.6093 -13.2812,-6.25012 -21.289,-10.74225 -24.0234,-13.4766 -9.7656,-10.54687 -14.6485,-24.0234 -14.6485,-40.42965 0,-20.31262 6.0548,-47.26567 18.1641,-80.85941 11.3282,-31.64062 22.6563,-57.03125 33.9844,-76.17187 10.9375,-18.75 16.4063,-32.22657 16.4063,-40.42969 0,-6.25 -2.9298,-13.47656 -8.7891,-21.67969 6.6406,-15.23437 9.9609,-27.14844 9.9609,-35.74219 0,-11.32812 -4.6875,-21.48437 -14.0625,-30.46875 -10.9374,-10.15625 -24.6093,-15.23437 -41.0156,-15.23437 z m 3422.2734,25.16602 c -18.75,0 -40.6249,8.98437 -65.625,26.95312 -42.5781,31.25 -80.0781,72.46094 -112.5,123.63281 -33.5937,53.51562 -50.3906,100.58592 -50.3906,141.21095 0,20.70315 5.4688,38.67187 16.4062,53.90625 15.2344,20.70315 37.3047,31.05465 66.211,31.05465 48.0469,0 101.5625,-32.8125 160.5469,-98.4375 37.1094,-41.79683 55.664,-69.92185 55.664,-84.37497 0,-3.90626 -1.5625,-7.8125 -4.6875,-11.71875 -3.5156,-3.90626 -7.4219,-5.85938 -11.7187,-5.85938 -7.4219,0 -16.2109,7.22656 -26.3672,21.67969 -19.5313,26.17186 -43.5547,52.34378 -72.0703,78.51563 -33.5937,30.46875 -62.6953,45.70313 -87.3047,45.70313 -12.5,0 -22.4609,-5.0781 -29.8828,-15.23438 -5.0781,-6.64065 -7.6172,-14.2578 -7.6172,-22.8516 0,-26.56245 13.6719,-62.89057 41.0156,-108.98434 26.5626,-44.14063 53.125,-76.56251 79.6875,-97.26563 16.7969,-12.89062 29.2969,-19.33593 37.5,-19.33593 7.0313,0 10.5469,3.12499 10.5469,9.375 0,5.46874 -2.539,12.69531 -7.6172,21.67968 -7.4219,13.28125 -14.6484,23.24219 -21.6797,29.88282 -8.2031,7.42187 -12.8906,11.91405 -14.0625,13.47656 -3.125,3.90625 -4.6875,9.17968 -4.6875,15.82031 0,12.5 5.4688,18.75 16.4063,18.75 12.8906,0 27.9297,-10.9375 45.1171,-32.8125 22.2657,-28.90625 33.3985,-57.61719 33.3985,-86.13281 0,-32.42188 -15.4297,-48.63281 -46.2891,-48.63281 z m -2415.6328,2.37304 c -10.1562,0 -21.0937,6.83594 -32.8125,20.50781 -5.0781,5.46876 -18.5547,22.85157 -40.4297,52.14844 -24.2187,33.20312 -37.8906,51.75782 -41.0156,55.66406 -15.2344,18.35938 -36.3281,41.01563 -63.2812,67.96875 -42.9688,42.5781 -72.2657,63.86723 -87.8907,63.86715 -7.8125,0 -11.7187,-4.10152 -11.7187,-12.30465 0,-14.0625 10.7422,-36.32812 32.2266,-66.79687 18.75,-26.95313 39.2578,-51.95312 61.5234,-75 21.0937,-22.26563 33.789,-36.52344 38.0859,-42.77344 4.6875,-6.64063 7.0313,-14.25781 7.0313,-22.85156 0,-5.85938 -2.1485,-10.9375 -6.4453,-15.23438 -4.6875,-5.46875 -10.1563,-8.20312 -16.4063,-8.20312 -22.6562,0 -59.375,35.54687 -110.1562,106.64062 -50,69.92188 -75,125.97645 -75,168.1641 0,11.71875 2.9297,21.48435 8.789,29.2968 7.8125,9.76575 18.3594,14.64848 31.6407,14.64848 27.3437,0 61.5234,-19.53128 102.539,-58.59375 20.7031,-19.92188 48.4375,-50.39063 83.2031,-91.40625 -12.1093,25.78125 -26.1718,54.68752 -42.1875,86.71875 -14.4531,29.68747 -25.1953,53.51565 -32.2265,71.48437 -11.3282,7.03125 -26.9531,16.21088 -46.875,27.5391 -49.2188,28.125 -86.3282,51.56235 -111.3281,70.3125 -85.5469,63.67181 -128.3204,125.97651 -128.3204,186.91401 0,21.4844 5.6641,39.2578 16.9922,53.3203 14.4531,18.3595 33.5938,27.5391 57.4219,27.5391 58.2031,0 114.6484,-47.8516 169.3359,-143.5547 29.2969,-51.9532 60.3516,-117.38283 93.1641,-196.28906 61.7187,-34.37497 113.6719,-76.17187 155.8594,-125.39062 35.1562,-41.01563 52.7343,-71.875 52.7343,-92.57813 0,-10.93749 -5.4687,-16.40625 -16.4062,-16.40625 -7.8125,0 -15.4297,7.81251 -22.8516,23.4375 -7.8125,17.18751 -29.2968,43.35938 -64.4531,78.51563 -20.7031,21.09375 -43.5547,38.86717 -68.5547,53.32027 13.2813,-34.37497 32.2266,-73.43746 56.836,-117.18746 15.625,-28.125 32.8125,-58.39843 51.5625,-90.82031 15.625,-26.5625 23.4375,-45.50781 23.4375,-56.83594 0,-6.64063 -2.3438,-12.5 -7.0313,-17.57812 -5.0781,-5.46876 -10.7422,-8.20313 -16.9922,-8.20313 z m 2082.8203,1.14258 c -37.5,0 -81.4453,25.78125 -131.8359,77.34375 -62.1094,63.28125 -93.1641,127.92971 -93.1641,193.94528 0,24.21878 5.6641,43.35938 16.9922,57.42188 16.7969,20.31255 39.8438,30.46875 69.1407,30.46875 28.5156,0 59.375,-8.98433 92.5781,-26.95313 33.2031,-17.96872 64.4531,-41.21092 93.75,-69.72652 37.5,-36.32813 56.25,-62.10938 56.25,-77.34376 0,-2.73438 -1.1719,-5.66407 -3.5156,-8.78906 -3.5157,-4.29688 -7.4219,-6.44531 -11.7188,-6.44531 -7.8125,0 -17.3828,6.44531 -28.711,19.33593 -64.0624,74.99997 -120.5077,112.49997 -169.3359,112.49997 -22.2656,0 -38.2812,-7.22655 -48.0468,-21.67965 -4.2969,-6.24997 -6.4454,-13.6719 -6.4454,-22.26562 v -10.54688 c 79.2969,-23.8281 138.6719,-66.99219 178.125,-129.49219 19.1407,-30.07813 28.711,-55.46876 28.711,-76.17188 0,-13.28125 -5.0781,-24.02343 -15.2344,-32.22656 -8.2031,-6.25 -17.3828,-9.375 -27.5391,-9.375 z m 1134.375,0 c -37.5,0 -81.4453,25.78125 -131.8359,77.34375 -62.1094,63.28125 -93.1641,127.92971 -93.1641,193.94528 0,24.21878 5.6641,43.35938 16.9922,57.42188 16.7969,20.31255 39.8438,30.46875 69.1407,30.46875 28.5156,0 59.375,-8.98433 92.5781,-26.95313 33.2031,-17.96872 64.4531,-41.21092 93.75,-69.72652 37.5,-36.32813 56.25,-62.10938 56.25,-77.34376 0,-2.73438 -1.1719,-5.66407 -3.5157,-8.78906 -3.5156,-4.29688 -7.4218,-6.44531 -11.7187,-6.44531 -7.8125,0 -17.3828,6.44531 -28.711,19.33593 -64.0624,74.99997 -120.5077,112.49997 -169.3359,112.49997 -22.2656,0 -38.2812,-7.22655 -48.0468,-21.67965 -4.2969,-6.24997 -6.4454,-13.6719 -6.4454,-22.26562 v -10.54688 c 79.2969,-23.8281 138.6719,-66.99219 178.125,-129.49219 19.1407,-30.07813 28.711,-55.46876 28.711,-76.17188 0,-13.28125 -5.0781,-24.02343 -15.2344,-32.22656 -8.2031,-6.25 -17.3828,-9.375 -27.5391,-9.375 z m -532.0312,8.78906 c -7.4219,0 -14.6484,3.71094 -21.6797,11.13282 -7.0312,7.03125 -17.5781,20.89843 -31.6406,41.60156 -43.75,63.28125 -75.3906,121.09378 -94.9219,173.43747 -25,66.40627 -37.5,105.46875 -37.5,117.1875 0,5.85937 2.1485,11.32815 6.4453,16.40625 4.6875,6.25005 10.9375,9.375 18.75,9.375 13.2813,0 23.0469,-9.7656 29.2969,-29.29688 14.0625,-44.14057 30.2734,-87.10935 48.6328,-128.90625 17.1875,-40.62494 46.0937,-92.38278 86.7188,-155.2734 11.3281,-16.40625 16.9921,-28.125 16.9921,-35.15625 0,-4.29688 -1.5625,-8.59376 -4.6875,-12.89063 -4.2968,-5.07813 -9.7656,-7.61719 -16.4062,-7.61719 z m -3712.3125,25.22461 c 6.25,0 12.1094,2.14844 17.5781,6.44531 5.4688,3.90625 10.5469,10.15626 15.2344,18.75 -8.2032,6.64063 -13.8672,12.30469 -16.9922,16.99219 -6.25,8.98438 -16.2109,27.34375 -29.8828,55.07813 -20.7031,42.57812 -38.0859,74.80468 -52.1484,96.67968 -25,39.84375 -46.875,59.76563 -65.625,59.76563 -7.4219,0 -13.086,-2.53898 -16.9923,-7.61723 -3.5156,-5.0781 -5.2734,-12.49995 -5.2734,-22.26555 0,-39.8439 19.1406,-88.4766 57.4219,-145.89847 34.7657,-51.95312 66.9922,-77.92969 96.6797,-77.92969 z m 1814.6572,14.60156 -2.2002,0.0996 c -1.3,0.10001 -3.8993,0.39981 -5.7993,0.79981 -12,2.5 -23.0994,14.60117 -33.8994,37.20117 -19,39.6 -30.3011,100.19941 -36.1011,192.89941 -1.8,29.00003 -2.499,92.6997 -0.999,103.1997 2.7,19.89998 8.2989,33.50018 19.3989,47.2002 l 6.3003,7.8003 0.7002,119.60012 c 0.4,74.6 1.1007,121.6999 1.7007,124.8999 1.4,7.3 6.2994,13.8997 12.8994,17.6997 4.7,2.6 6.3995,3 12.4995,3 5.2,0 8.1006,-0.6002 11.1006,-2.2002 5.4,-2.7 11.6997,-10 13.1997,-15 0.9,-3 1.1997,-80.8001 1.1997,-320.60012 z m 1271.2881,12.90821 c 7.4218,0 11.1328,3.90625 11.1328,11.71875 0,7.42187 -2.9297,15.82031 -8.789,25.19531 -16.0157,26.5625 -37.6953,50.39063 -65.0391,71.48438 -15.625,11.71875 -37.1094,22.26562 -64.4532,31.64062 22.2657,-51.17188 50.1953,-90.23437 83.7891,-117.1875 18.75,-15.23437 33.2031,-22.85156 43.3594,-22.85156 z m 1134.375,0 c 7.4219,0 11.1328,3.90625 11.1328,11.71875 0,7.42187 -2.9297,15.82031 -8.7891,25.19531 -16.0156,26.5625 -37.6952,50.39063 -65.0391,71.48438 -15.6249,11.71875 -37.1093,22.26562 -64.4531,31.64062 22.2656,-51.17188 50.1953,-90.23437 83.7891,-117.1875 18.75,-15.23437 33.2031,-22.85156 43.3594,-22.85156 z m -281.836,7.61719 c 7.0313,0 12.1095,1.75781 15.2344,5.27343 3.5156,3.51563 5.2735,8.78907 5.2735,15.82032 0,10.15624 -3.9063,25.19531 -11.7188,45.11718 -9.7656,25 -22.8516,49.41406 -39.2578,73.24219 -44.1406,64.45313 -84.375,96.67966 -120.7032,96.67966 -12.8906,0 -23.6328,-4.49213 -32.2265,-13.47653 7.0313,-12.89062 21.2891,-39.84375 42.7734,-80.85938 23.4375,-44.53125 47.8516,-79.10156 73.2422,-103.71094 26.5626,-25.39062 49.0235,-38.08593 67.3828,-38.08593 z m -1997.9018,0.81591 c -3.3375,0.0281 -6.6747,0.30879 -8.3247,0.75879 -22.3,5.5 -45.4001,35.69942 -58.1001,75.89942 -3.8,12.3 -5.2006,20.40029 -6.6006,39.30029 -1.4,19.6 -0.099,43.89982 3.1011,56.29979 3.3,12.80003 9.9989,24.20078 20.8989,35.8008 11.9,12.50003 17.7001,20.49968 23.6001,32.6997 7.1,14.90003 9.6998,26.39993 9.7998,43.8999 0,15.99998 -1.5999,25.6998 -7.8999,47.2998 l -3.3999,11.9004 v 132.70021 c 0,150.1 -0.599,138.5992 8.001,147.1992 13.2,13.2 35.2989,9.1009 43.3989,-8.0991 l 2.1006,-4.5 0.3003,-132.3003 0.1992,-132.20071 -3.3999,-17.2998 c -5.1,-25.10002 -5.8998,-33.1992 -5.2998,-49.6992 1,-29.1 8.9006,-48.00052 29.1006,-70.0005 14.2,-15.50002 20.999,-28.0995 23.499,-43.9995 2.7,-16.59997 0.7006,-56.40021 -3.8994,-77.2002 -6.9,-30.80001 -22.2005,-62.5001 -37.0005,-76.1001 -8.7,-8.1 -17.0993,-12.0003 -26.7993,-12.3003 -1.05,-0.05 -2.1629,-0.0679 -3.2754,-0.0586 z m -356.4243,12.65918 c -2.7,0 -4.701,0.49971 -5.001,1.19971 -0.4,1.2 -16.7991,118.99952 -20.0991,144.4995 -0.7,5.49998 1.2002,19.20083 3.7002,26.8008 2.9,8.49998 8.4994,17.59943 17.3994,27.8994 18.1,21.09998 25.9,37.90028 28.5,61.8003 1.8,16.10003 5e-4,31.4994 -6.4995,56.3994 l -3.501,13.1997 v 134.40091 134.3994 l 2.6001,5.2002 c 4.7,9.4 13.1004,14.6001 23.9004,14.6001 11.3,0 19.9006,-5.5994 24.6006,-15.8994 1.8,-3.8 1.8999,-10.5005 1.8999,-139.0005 0,-132.00001 -0.1006,-135.20003 -2.1006,-145.50001 -3.6,-18.69997 -4.8999,-30.19957 -4.8999,-45.0996 0,-31.8 7.3993,-52.50082 26.7993,-74.8008 12.6,-14.60002 17.0012,-23.80012 19.2012,-40.1001 1.1,-8.19997 0.9001,-10.2 -4.8999,-50.99998 -3.3,-23.4 -8.1007,-57.49981 -10.7007,-75.79981 l -4.6992,-33.19922 h -4.9014 -4.7988 l 0.4995,10.69922 c 0.3,6 1,34.4003 1.5,63.30029 0.5,28.9 1.2996,61.4007 1.5996,72.2007 l 0.7002,19.7988 h -9.1992 -9.1011 v -8.7993 c 0,-4.8 -0.399,-28.10019 -0.999,-51.7002 -0.5,-23.7 -1.2011,-57.0998 -1.6011,-74.2998 l -0.5991,-31.19971 h -5.4009 -5.3994 v 83.49903 83.50048 h -7.9995 -8.001 v -30.7998 c 0,-17.00001 -0.3002,-54.60049 -0.7002,-83.50049 l -0.5991,-52.69922 h -5.4009 -5.2998 v 5.69971 c 0,7.8 -1.8001,102.49999 -2.6001,135 l -0.5991,26.2998 h -8.6001 -8.5005 l 0.7002,-22.2993 c 0.3,-12.20003 1.0996,-43.60021 1.5996,-69.70021 0.5,-26.1 1.2,-53.70078 1.5,-61.30078 l 0.6006,-13.69922 z m -784.9395,332.25736 c -6.6406,14.0625 -12.6953,26.95305 -18.164,38.6718 -26.1719,57.42206 -42.1875,91.21096 -48.0469,101.36726 -35.5469,61.3281 -67.9687,91.992 -97.2656,91.9922 -9.375,0 -16.9922,-3.5156 -22.8516,-10.547 -4.2969,-5.0781 -6.4453,-11.328 -6.4453,-18.75 0,-34.7655 21.875,-72.2655 65.625,-112.5 43.3594,-39.06243 85.7422,-69.14051 127.1484,-90.23426 z"
     id="path4"
     inkscape:connector-curvature="0" />
  <flowRoot
     xml:space="preserve"
     id="flowRoot832"
     style="font-style:normal;font-variant:normal;font-weight:normal;font-stretch:normal;font-size:1600px;line-height:1.25;font-family:brown;-inkscape-font-specification:brown;text-align:start;letter-spacing:0px;word-spacing:0px;text-anchor:start;fill:#000000;fill-opacity:1;stroke:none"
     transform="matrix(0.75,0,0,0.75,1755.3999,-0.3445061)"><flowRegion
       id="flowRegion834"><rect
         id="rect836"
         width="6066.1919"
         height="2201.4407"
         x="-3095.9944"
         y="-873.58759" /></flowRegion><flowPara
       id="flowPara838" /></flowRoot>  <flowRoot
     xml:space="preserve"
     id="flowRoot858"
     style="font-style:normal;font-variant:normal;font-weight:normal;font-stretch:normal;font-size:1600px;line-height:1.25;font-family:brown;-inkscape-font-specification:brown;text-align:start;letter-spacing:0px;word-spacing:0px;text-anchor:start;fill:#000000;fill-opacity:1;stroke:none"
     transform="matrix(0.75,0,0,0.75,1755.3999,-0.3445061)"><flowRegion
       id="flowRegion860"><rect
         id="rect862"
         width="3529.2937"
         height="2998.1526"
         x="-4975.9546"
         y="-810.68927" /></flowRegion><flowPara
       id="flowPara864" /></flowRoot>  <flowRoot
     xml:space="preserve"
     id="flowRoot866"
     style="font-style:normal;font-variant:normal;font-weight:normal;font-stretch:normal;font-size:1600px;line-height:1.25;font-family:brown;-inkscape-font-specification:brown;text-align:start;letter-spacing:0px;word-spacing:0px;text-anchor:start;fill:#000000;fill-opacity:1;stroke:none"
     transform="matrix(0.75,0,0,0.75,1755.3999,-0.3445061)"><flowRegion
       id="flowRegion868"><rect
         id="rect870"
         width="2180.4746"
         height="1747.1752"
         x="-3780.887"
         y="-307.50284" /></flowRegion><flowPara
       id="flowPara872" /></flowRoot></svg>
